<?xml version="1.0"?>
<svg width="64" height="64" xmlns="http://www.w3.org/2000/svg" xmlns:svg="http://www.w3.org/2000/svg" display="inline" version="1.0">

 <metadata id="metadata7">image/svg+xmlAstro_signs12 February 2008Tavmjong BahAstrological signs</metadata>
 <g class="layer">
  <title>Layer 1</title>
  <path d="m566.15,-54.93l-18.24,0l0,-4.69l10.98,0c-0.77,-0.96 -1.4,-2 -1.91,-3.12c-0.79,-1.77 -1.19,-3.65 -1.19,-5.63c0,-2.04 0.4,-3.95 1.19,-5.72c0.83,-1.83 2,-3.44 3.51,-4.84c1.5,-1.4 3.23,-2.48 5.17,-3.25c1.85,-0.73 3.87,-1.09 6.07,-1.09c2.29,0 4.31,0.36 6.06,1.09c2.02,0.85 3.75,1.94 5.18,3.25c1.5,1.4 2.68,3.01 3.5,4.84c0.79,1.77 1.19,3.68 1.19,5.72c0,1.98 -0.4,3.86 -1.19,5.63c-0.51,1.12 -1.14,2.16 -1.91,3.12l10.98,0l0,4.69l-18.27,0l0,-4.69c0.81,-0.43 1.57,-0.97 2.3,-1.59c1.04,-0.9 1.87,-2 2.46,-3.31c0.55,-1.23 0.83,-2.52 0.83,-3.88c0,-1.37 -0.28,-2.68 -0.83,-3.9c-0.57,-1.23 -1.4,-2.34 -2.46,-3.32c-1,-0.89 -2.2,-1.63 -3.61,-2.22c-1.22,-0.5 -2.63,-0.75 -4.24,-0.75c-1.54,0 -2.95,0.25 -4.25,0.75c-1.34,0.52 -2.54,1.26 -3.61,2.22c-1.06,0.98 -1.89,2.09 -2.46,3.32c-0.55,1.22 -0.83,2.53 -0.83,3.9c0,1.36 0.28,2.65 0.83,3.88c0.57,1.23 1.4,2.33 2.46,3.31c0.65,0.6 1.41,1.13 2.27,1.59l0,4.69m-18.24,14.06l0,-4.68l47.64,0l0,4.68l-47.64,0" fill="#000000" id="text2429" stroke-width="1px" transform="matrix(1 0 0 1 0 0)"/>
  <path d="m418.32,-67.09c1.93,1.21 3.79,2.19 5.58,2.94c4.56,1.94 9.61,2.91 15.17,2.91c3.48,0 6.79,-0.39 9.93,-1.16c-0.28,-0.23 -0.53,-0.46 -0.77,-0.69c-0.96,-0.95 -1.67,-1.98 -2.12,-3.06c-0.46,-1.12 -0.69,-2.32 -0.69,-3.59c0,-1.25 0.24,-2.44 0.69,-3.56c0.49,-1.19 1.2,-2.21 2.12,-3.07c1,-0.93 2.03,-1.62 3.1,-2.06c1.1,-0.46 2.32,-0.69 3.64,-0.69c1.38,0 2.6,0.23 3.64,0.69c1.24,0.54 2.27,1.23 3.1,2.06c0.96,0.96 1.67,1.98 2.12,3.07c0.47,1.12 0.69,2.31 0.69,3.56c0,1.25 -0.22,2.45 -0.69,3.59c-0.51,1.25 -1.32,2.32 -2.43,3.22c-1.55,1.25 -3.33,2.29 -5.33,3.13c-5.19,2.16 -10.85,3.25 -16.98,3.25c-6.28,0 -11.94,-1.09 -16.99,-3.25c-1.3,-0.57 -2.55,-1.16 -3.76,-1.79l0,-5.5m34.83,1.72c0.55,0.23 1.15,0.35 1.82,0.35c0.66,0 1.27,-0.12 1.82,-0.35c0.57,-0.25 1.09,-0.59 1.56,-1.03c0.43,-0.42 0.78,-0.93 1.05,-1.53c0.24,-0.56 0.36,-1.17 0.36,-1.81c0,-0.63 -0.12,-1.22 -0.36,-1.78c-0.22,-0.55 -0.58,-1.06 -1.05,-1.53c-0.4,-0.4 -0.92,-0.74 -1.56,-1.04c-0.55,-0.23 -1.15,-0.34 -1.82,-0.34c-0.66,0 -1.27,0.11 -1.82,0.34c-0.57,0.25 -1.09,0.6 -1.56,1.04c-0.43,0.41 -0.78,0.92 -1.05,1.53c-0.24,0.56 -0.36,1.15 -0.36,1.78c0,0.64 0.12,1.25 0.36,1.81c0.24,0.54 0.58,1.05 1.05,1.53c0.4,0.4 0.92,0.74 1.56,1.03m11.36,-16.68c-1.93,-1.21 -3.79,-2.19 -5.58,-2.94c-4.56,-1.94 -9.61,-2.91 -15.17,-2.91c-3.48,0 -6.79,0.39 -9.93,1.16c0.28,0.23 0.53,0.46 0.77,0.69c0.96,0.95 1.67,1.97 2.12,3.06c0.46,1.12 0.69,2.32 0.69,3.59c0,1.25 -0.24,2.44 -0.69,3.56c-0.49,1.19 -1.2,2.21 -2.12,3.07c-1,0.93 -2.03,1.62 -3.1,2.06c-1.1,0.46 -2.32,0.69 -3.64,0.69c-1.38,0 -2.6,-0.23 -3.64,-0.69c-1.24,-0.54 -2.27,-1.23 -3.1,-2.06c-0.96,-0.96 -1.67,-1.98 -2.12,-3.07c-0.47,-1.12 -0.69,-2.31 -0.69,-3.56c0,-1.25 0.22,-2.45 0.69,-3.59c0.51,-1.25 1.32,-2.33 2.43,-3.22c1.55,-1.25 3.33,-2.29 5.33,-3.13c5.19,-2.16 10.85,-3.25 16.98,-3.25c6.28,0 11.94,1.09 16.99,3.25c1.3,0.57 2.55,1.16 3.76,1.79l0,5.5m-34.83,-1.72c-0.55,-0.23 -1.15,-0.35 -1.82,-0.35c-0.66,0 -1.27,0.12 -1.82,0.35c-0.57,0.25 -1.09,0.59 -1.56,1.03c-0.43,0.41 -0.78,0.92 -1.05,1.53c-0.24,0.56 -0.36,1.17 -0.36,1.81c0,0.63 0.12,1.22 0.36,1.78c0.22,0.54 0.58,1.05 1.05,1.53c0.4,0.4 0.92,0.74 1.56,1.04c0.55,0.22 1.15,0.34 1.82,0.34c0.66,0 1.27,-0.12 1.82,-0.34c0.57,-0.25 1.09,-0.6 1.56,-1.04c0.43,-0.41 0.78,-0.92 1.05,-1.53c0.24,-0.56 0.36,-1.15 0.36,-1.78c0,-0.64 -0.12,-1.25 -0.36,-1.81c-0.24,-0.54 -0.58,-1.05 -1.05,-1.53c-0.4,-0.4 -0.92,-0.74 -1.56,-1.03" fill="#000000" id="text2445" stroke-width="1px"/>
  <path d="m-124.37,280.82l-17.24,16.88l8.65,8.46l-3.39,3.32l-8.64,-8.47l-11.31,11.06l-3.38,-3.31l11.3,-11.06l-8.65,-8.47l3.39,-3.32l8.65,8.47l17.27,-16.9l-13.12,0l0,-4.69l21.26,0l0,20.81l-4.79,0l0,-12.78" fill="#000000" id="text2449" stroke-width="1px"/>
  <path d="m221.48,434.74l-3.71,-6.25l-11.05,6.25l-2.39,-4.03l15.22,-8.59l3.68,6.25l11.08,-6.25l3.67,6.25l11.09,-6.25l6.06,10.28l-4.15,2.34l-3.7,-6.25l-11.06,6.25l-3.7,-6.25l-11.05,6.25m0,20l-3.71,-6.25l-11.05,6.25l-2.39,-4.03l15.22,-8.59l3.68,6.25l11.08,-6.25l3.67,6.25l11.09,-6.25l6.06,10.28l-4.15,2.34l-3.7,-6.25l-11.06,6.25l-3.7,-6.25l-11.05,6.25" fill="#000000" id="text2453" stroke-width="1px"/>
  <path d="m38,45.41c-0.18,0.73 -0.29,1.34 -0.29,1.82c0,0.73 0.1,1.32 0.29,1.78c0.26,0.54 0.56,0.97 0.9,1.28c0.38,0.35 0.81,0.63 1.28,0.84c0.47,0.21 1.2,0.32 2.17,0.32c0.88,0 1.65,-0.15 2.3,-0.44c0.84,-0.36 1.53,-0.8 2.12,-1.35l3.38,3.32c-0.94,0.87 -2.18,1.66 -3.71,2.37c-1.1,0.52 -2.46,0.78 -4.09,0.78c-1.63,0 -2.95,-0.22 -3.95,-0.65c-1.15,-0.5 -2.1,-1.13 -2.87,-1.88c-0.86,-0.83 -1.49,-1.76 -1.92,-2.78c-0.43,-1.04 -0.63,-2.24 -0.63,-3.59c0,-1.48 0.21,-2.77 0.66,-3.88c1.62,-3.89 3.2,-6.83 4.73,-8.81c1.91,-2.48 3.39,-5.12 4.43,-7.91c0.47,-1.23 0.71,-2.62 0.71,-4.18c0,-1.69 -0.24,-3.1 -0.71,-4.22c-0.45,-1.09 -1.14,-2.11 -2.1,-3.07c-0.83,-0.83 -1.86,-1.52 -3.1,-2.06c-1.04,-0.46 -2.26,-0.69 -3.64,-0.69c-1.33,0 -2.53,0.23 -3.65,0.69c-1.06,0.44 -2.09,1.13 -3.1,2.06c-0.91,0.86 -1.61,1.88 -2.1,3.07c-0.47,1.12 -0.71,2.32 -0.71,3.59c0,1.35 0.24,2.54 0.71,3.56c0.57,1.23 1.39,2.77 2.46,4.63c1.42,2.44 2.14,4.75 2.14,6.94c0,1.25 -0.24,2.43 -0.71,3.56c-0.45,1.08 -1.14,2.1 -2.1,3.06c-0.83,0.83 -1.86,1.52 -3.1,2.06c-1.04,0.46 -2.26,0.69 -3.64,0.69c-1.33,0 -2.53,-0.23 -3.65,-0.69c-1.06,-0.43 -2.09,-1.12 -3.1,-2.06c-0.91,-0.85 -1.61,-1.87 -2.1,-3.06c-0.47,-1.13 -0.71,-2.31 -0.71,-3.56c0,-1.28 0.24,-2.47 0.71,-3.6c0.45,-1.08 1.14,-2.1 2.1,-3.06c0.83,-0.83 1.86,-1.52 3.1,-2.06c1.04,-0.46 2.26,-0.69 3.65,-0.69l0.54,0c-0.73,-1.61 -1.09,-3.5 -1.09,-5.69c0,-2.02 0.36,-3.83 1.06,-5.44c0.76,-1.75 1.82,-3.28 3.16,-4.59c1.34,-1.31 2.89,-2.33 4.66,-3.06c1.67,-0.69 3.48,-1.03 5.47,-1.03c2.08,0 3.9,0.34 5.46,1.03c1.85,0.81 3.4,1.83 4.66,3.06c1.41,1.38 2.46,2.91 3.17,4.59c0.69,1.69 1.05,3.71 1.05,6.07c0,2.33 -0.36,4.32 -1.05,5.97c-1.33,3.14 -2.95,6.04 -4.89,8.68c-2.19,3.07 -3.64,5.83 -4.34,8.28m-16.02,-12.84c-0.56,-0.23 -1.16,-0.34 -1.82,-0.34c-0.66,0 -1.27,0.11 -1.83,0.34c-0.57,0.25 -1.09,0.59 -1.56,1.03c-0.47,0.48 -0.82,0.99 -1.05,1.53c-0.24,0.57 -0.35,1.17 -0.35,1.82c0,0.62 0.11,1.21 0.35,1.78c0.24,0.54 0.58,1.05 1.05,1.53c0.47,0.44 0.99,0.78 1.56,1.03c0.56,0.23 1.16,0.34 1.83,0.34c0.65,0 1.26,-0.11 1.82,-0.34c0.57,-0.25 1.09,-0.59 1.56,-1.03c0.47,-0.48 0.82,-0.99 1.05,-1.53c0.24,-0.57 0.35,-1.16 0.35,-1.78c0,-0.65 -0.11,-1.25 -0.35,-1.82c-0.24,-0.54 -0.58,-1.05 -1.05,-1.53c-0.47,-0.44 -0.99,-0.78 -1.56,-1.03" fill="#000000" id="text2457" stroke-width="1px"/>
  <path d="m-80.59,441.82c-0.38,-0.56 -0.75,-1.16 -1.08,-1.78c-1.73,-3.17 -2.59,-6.66 -2.59,-10.47l0,-2.62c0,-3.71 -0.22,-6.52 -0.67,-8.41c-0.67,-2.92 -1.52,-4.38 -2.52,-4.38c-1.02,0 -2.43,1.87 -4.24,5.6c-1.43,2.94 -2.15,6.06 -2.15,9.37l0,7.85l-4.78,0l0,-10.03c0,-3.69 -0.28,-6.49 -0.84,-8.41c-0.85,-2.92 -2.54,-4.38 -5.07,-4.38l-2.3,0l0,-5.93l2.68,0c3.22,0 5.67,1.41 7.38,4.25c0.94,1.56 1.56,3.1 1.88,4.62c0.64,-1.85 1.49,-3.46 2.55,-4.81c2.16,-2.71 4.02,-4.06 5.59,-4.06c1.51,0 3.12,1.41 4.82,4.25c0.92,1.5 1.49,3.04 1.73,4.62c0.42,2.9 0.63,5.39 0.63,7.47l0,3.47c0,2.98 0.41,5.53 1.22,7.66c0.79,-1.69 1.69,-3.04 2.69,-4.04c0.95,-0.95 2.23,-1.75 3.83,-2.37c1.28,-0.5 2.75,-0.75 4.43,-0.75c1.43,0 2.75,0.25 3.95,0.75c1.24,0.5 2.36,1.24 3.36,2.22c0.97,0.96 1.73,2.06 2.26,3.31c0.51,1.23 0.77,2.53 0.77,3.91c0,1.35 -0.26,2.64 -0.77,3.87c-0.53,1.25 -1.29,2.36 -2.26,3.31c-0.92,0.9 -2.03,1.64 -3.36,2.22c-1.12,0.5 -2.55,0.75 -4.27,0.75c-1.75,0 -3.39,-0.25 -4.92,-0.75c-1.55,-0.5 -2.98,-1.27 -4.3,-2.31c-0.37,0.92 -0.75,1.78 -1.15,2.59c-0.94,1.84 -2.05,3.29 -3.35,4.35c-1.69,1.37 -3.25,2.33 -4.69,2.87c-1.75,0.67 -3.58,1 -5.5,1l-1.79,0l0,-4.68l1.79,0c1.43,0 2.64,-0.22 3.64,-0.66c1.24,-0.52 2.25,-1.15 3.03,-1.88c0.9,-0.79 1.65,-1.71 2.24,-2.78c0.68,-1.21 1.39,-2.81 2.14,-4.81m5.44,-1.22c1.59,1.71 3.14,2.77 4.63,3.19c0.95,0.27 1.9,0.41 2.84,0.41c1,0 1.81,-0.14 2.42,-0.41c0.68,-0.29 1.29,-0.69 1.82,-1.19c0.51,-0.5 0.93,-1.09 1.25,-1.78c0.28,-0.6 0.42,-1.3 0.42,-2.09c0,-0.75 -0.14,-1.46 -0.42,-2.13c-0.26,-0.62 -0.66,-1.22 -1.25,-1.78c-0.53,-0.5 -1.13,-0.9 -1.82,-1.19c-0.63,-0.27 -1.34,-0.4 -2.1,-0.4c-0.73,0 -1.48,0.13 -2.27,0.4c-0.87,0.32 -1.53,0.71 -1.98,1.19c-1.5,1.67 -2.69,3.59 -3.54,5.78" fill="#000000" id="text2461" stroke-width="1px" transform="matrix(1 0 0 1 0 0)"/>
  <path d="m350.43,551.79l-10.02,0c-0.26,4.12 -1.14,7.97 -2.65,11.53c-1.39,3.27 -3.39,6.42 -6.01,9.44l-6.61,0c3.89,-3.71 6.62,-7.46 8.17,-11.25c1.28,-3.09 2.03,-6.33 2.27,-9.72l-9.48,0l0,-4.69l9.48,0c-0.24,-3.39 -0.99,-6.63 -2.27,-9.72c-1.57,-3.79 -4.3,-7.55 -8.17,-11.28l6.61,0c2.6,3.02 4.6,6.18 6.01,9.47c1.52,3.56 2.41,7.41 2.65,11.53l10.02,0c0.24,-4.12 1.11,-7.97 2.66,-11.53c1.4,-3.29 3.4,-6.45 6,-9.47l6.61,0c-3.87,3.73 -6.6,7.49 -8.17,11.28c-1.28,3.09 -2.03,6.33 -2.27,9.72l9.17,0l0,4.69l-9.17,0c0.24,3.39 0.99,6.63 2.27,9.72c1.55,3.79 4.28,7.54 8.17,11.25l-6.61,0c-2.62,-3.02 -4.62,-6.17 -6,-9.44c-1.51,-3.62 -2.4,-7.47 -2.66,-11.53" fill="#000000" id="text2465" stroke-width="1px"/>
  <switch transform="translate(-114 -96) matrix(1.02176 0 0 1 76.2977 -178)">
   <text fill="#000000" font-family="DejaVu Sans" font-size="16px" font-style="normal" font-weight="normal" id="text2519-bs" stroke-width="1px" systemLanguage="bs" text-anchor="middle" x="66.96" xml:space="preserve" y="122.36">
    <tspan id="tspan2521-bs" x="66.96" y="122.36">Ovan</tspan>
   </text>
   <text fill="#000000" font-family="DejaVu Sans" font-size="16px" font-style="normal" font-weight="normal" id="text2519-fr" stroke-width="1px" systemLanguage="fr" text-anchor="middle" x="66.96" xml:space="preserve" y="122.36">
    <tspan id="tspan2521-fr" x="66.96" y="122.36">Bélier</tspan>
   </text>
   <text fill="#000000" font-family="DejaVu Sans" font-size="16px" font-style="normal" font-weight="normal" id="text2519" stroke-width="1px" text-anchor="middle" x="66.96" xml:space="preserve" y="122.36">
    <tspan id="tspan2521" x="66.96" y="122.36">Aries</tspan>
   </text>
  </switch>
  <switch transform="translate(97 -183) matrix(1.02176 0 0 1 -17.0505 -2)">
   <text fill="#000000" font-family="DejaVu Sans" font-size="16px" font-style="normal" font-weight="normal" id="text2523-bs" stroke-width="1px" systemLanguage="bs" text-anchor="middle" x="155.79" xml:space="preserve" y="122.36">
    <tspan id="tspan2525-bs" x="155.79" y="122.36">Bik</tspan>
   </text>
   <text fill="#000000" font-family="DejaVu Sans" font-size="16px" font-style="normal" font-weight="normal" id="text2523-es" stroke-width="1px" systemLanguage="es" text-anchor="middle" x="155.79" xml:space="preserve" y="122.36">
    <tspan id="tspan2525-es" x="155.79" y="122.36">Tauro</tspan>
   </text>
   <text fill="#000000" font-family="DejaVu Sans" font-size="16px" font-style="normal" font-weight="normal" id="text2523-fr" stroke-width="1px" systemLanguage="fr" text-anchor="middle" x="155.79" xml:space="preserve" y="122.36">
    <tspan id="tspan2525-fr" x="155.79" y="122.36">Taureau</tspan>
   </text>
   <text fill="#000000" font-family="DejaVu Sans" font-size="16px" font-style="normal" font-weight="normal" id="text2523" stroke-width="1px" text-anchor="middle" x="155.79" xml:space="preserve" y="122.36">
    <tspan id="tspan2525" x="155.79" y="122.36">Taurus</tspan>
   </text>
  </switch>
  <switch transform="matrix(1 0 0 1 0 0) translate(55 -154) matrix(1.02176 0 0 1 -32.9751 -21.8)">
   <text fill="#000000" font-family="DejaVu Sans" font-size="16px" font-style="normal" font-weight="normal" id="text2527-bs" stroke-width="1px" systemLanguage="bs" text-anchor="middle" x="244.42" xml:space="preserve" y="122.36">
    <tspan id="tspan2529-bs" x="244.42" y="122.36">Blizanci</tspan>
   </text>
   <text fill="#000000" font-family="DejaVu Sans" font-size="16px" font-style="normal" font-weight="normal" id="text2527-es" stroke-width="1px" systemLanguage="es" text-anchor="middle" x="244.42" xml:space="preserve" y="122.36">
    <tspan id="tspan2529-es" x="244.42" y="122.36">Géminis</tspan>
   </text>
   <text fill="#000000" font-family="DejaVu Sans" font-size="16px" font-style="normal" font-weight="normal" id="text2527-fr" stroke-width="1px" systemLanguage="fr" text-anchor="middle" x="244.42" xml:space="preserve" y="122.36">
    <tspan id="tspan2529-fr" x="244.42" y="122.36">Gémeaux</tspan>
   </text>
   <text fill="#000000" font-family="DejaVu Sans" font-size="16px" font-style="normal" font-weight="normal" id="text2527" stroke-width="1px" text-anchor="middle" x="244.42" xml:space="preserve" y="122.36">
    <tspan id="tspan2529" x="244.42" y="122.36">Gemini</tspan>
   </text>
  </switch>
  <switch transform="matrix(1 0 0 1 0 0) translate(152 -175) matrix(1 0 0 1 0 0) matrix(1.02176 0 0 1 -0.702309 0)">
   <text fill="#000000" font-family="DejaVu Sans" font-size="16px" font-style="normal" font-weight="normal" id="text2531-bs" stroke-width="1px" systemLanguage="bs" text-anchor="middle" x="332.43" xml:space="preserve" y="122.36">
    <tspan id="tspan2533-bs" x="332.43" y="122.36">Rak</tspan>
   </text>
   <text fill="#000000" font-family="DejaVu Sans" font-size="16px" font-style="normal" font-weight="normal" id="text2531-es" stroke-width="1px" systemLanguage="es" text-anchor="middle" x="332.43" xml:space="preserve" y="122.36">
    <tspan id="tspan2533-es" x="332.43" y="122.36">Cáncer</tspan>
   </text>
   <text fill="#000000" font-family="DejaVu Sans" font-size="16px" font-style="normal" font-weight="normal" id="text2531-fr" stroke-width="1px" systemLanguage="fr" text-anchor="middle" x="332.43" xml:space="preserve" y="122.36">
    <tspan id="tspan2533-fr" x="332.43" y="122.36">Cancer</tspan>
   </text>
   <text fill="#000000" font-family="DejaVu Sans" font-size="16px" font-style="normal" font-weight="normal" id="text2531" stroke-width="1px" text-anchor="middle" x="332.43" xml:space="preserve" y="122.36">
    <tspan id="tspan2533" x="332.43" y="122.36">Cancer</tspan>
   </text>
  </switch>
  <switch transform="matrix(1 0 0 1 0 0) translate(-202 -9) matrix(1.02176 0 0 1 -32.9751 -21.8)">
   <text fill="#000000" font-family="DejaVu Sans" font-size="16px" font-style="normal" font-weight="normal" id="text2535-bs" stroke-width="1px" systemLanguage="bs" text-anchor="middle" x="66.27" xml:space="preserve" y="235.38">
    <tspan id="tspan2537-bs" x="66.27" y="235.38">Lav</tspan>
   </text>
   <text fill="#000000" font-family="DejaVu Sans" font-size="16px" font-style="normal" font-weight="normal" id="text2535-fr" stroke-width="1px" systemLanguage="fr" text-anchor="middle" x="66.27" xml:space="preserve" y="235.38">
    <tspan id="tspan2537-fr" x="66.27" y="235.38">Lion</tspan>
   </text>
   <text fill="#000000" font-family="DejaVu Sans" font-size="16px" font-style="normal" font-weight="normal" id="text2535" stroke-width="1px" text-anchor="middle" x="66.27" xml:space="preserve" y="235.38">
    <tspan id="tspan2537" x="66.27" y="235.38">Leo</tspan>
   </text>
  </switch>
  <switch transform="translate(-194 -18) matrix(1.02176 0 0 1 -32.9751 -21.8)">
   <text fill="#000000" font-family="DejaVu Sans" font-size="16px" font-style="normal" font-weight="normal" id="text2539-bs" stroke-width="1px" systemLanguage="bs" text-anchor="middle" x="155.75" xml:space="preserve" y="235.38">
    <tspan id="tspan2541-bs" x="155.75" y="235.38">Djevica</tspan>
   </text>
   <text fill="#000000" font-family="DejaVu Sans" font-size="16px" font-style="normal" font-weight="normal" id="text2539-fr" stroke-width="1px" systemLanguage="fr" text-anchor="middle" x="155.75" xml:space="preserve" y="235.38">
    <tspan id="tspan2541-fr" x="155.75" y="235.38">Vierge</tspan>
   </text>
   <text fill="#000000" font-family="DejaVu Sans" font-size="16px" font-style="normal" font-weight="normal" id="text2539" stroke-width="1px" text-anchor="middle" x="155.75" xml:space="preserve" y="235.38">
    <tspan id="tspan2541" x="155.75" y="235.38">Virgo</tspan>
   </text>
  </switch>
  <switch transform="translate(-129 210) matrix(1.02176 0 0 1 -32.9751 -21.8)">
   <text fill="#000000" font-family="DejaVu Sans" font-size="16px" font-style="normal" font-weight="normal" id="text2543-bs" stroke-width="1px" systemLanguage="bs" text-anchor="middle" x="244.09" xml:space="preserve" y="235.38">
    <tspan id="tspan2545-bs" x="244.09" y="235.38">Vaga</tspan>
   </text>
   <text fill="#000000" font-family="DejaVu Sans" font-size="16px" font-style="normal" font-weight="normal" id="text2543-fr" stroke-width="1px" systemLanguage="fr" text-anchor="middle" x="244.09" xml:space="preserve" y="235.38">
    <tspan id="tspan2545-fr" x="244.09" y="235.38">Balance</tspan>
   </text>
   <text fill="#000000" font-family="DejaVu Sans" font-size="16px" font-style="normal" font-weight="normal" id="text2543" stroke-width="1px" text-anchor="middle" x="244.09" xml:space="preserve" y="235.38">
    <tspan id="tspan2545" x="244.09" y="235.38">Libra</tspan>
   </text>
  </switch>
  <switch transform="translate(9 256) matrix(1.02176 0 0 1 -32.9751 -21.8)">
   <text fill="#000000" font-family="DejaVu Sans" font-size="16px" font-style="normal" font-weight="normal" id="text2547-bs" stroke-width="1px" systemLanguage="bs" text-anchor="middle" x="332.78" xml:space="preserve" y="235.38">
    <tspan id="tspan2549-bs" x="332.78" y="235.38">Škorpion</tspan>
   </text>
   <text fill="#000000" font-family="DejaVu Sans" font-size="16px" font-style="normal" font-weight="normal" id="text2547-es" stroke-width="1px" systemLanguage="es" text-anchor="middle" x="332.78" xml:space="preserve" y="235.38">
    <tspan id="tspan2549-es" x="332.78" y="235.38">Escorpio</tspan>
   </text>
   <text fill="#000000" font-family="DejaVu Sans" font-size="16px" font-style="normal" font-weight="normal" id="text2547-fr" stroke-width="1px" systemLanguage="fr" text-anchor="middle" x="332.78" xml:space="preserve" y="235.38">
    <tspan id="tspan2549-fr" x="332.78" y="235.38">Scorpion</tspan>
   </text>
   <text fill="#000000" font-family="DejaVu Sans" font-size="16px" font-style="normal" font-weight="normal" id="text2547" stroke-width="1px" text-anchor="middle" x="332.78" xml:space="preserve" y="235.38">
    <tspan id="tspan2549" x="332.78" y="235.38">Scorpio</tspan>
   </text>
  </switch>
  <switch transform="matrix(1 0 0 1 0 0) translate(-6 176) matrix(1.02176 0 0 1 -32.9751 -21.8)">
   <text fill="#000000" font-family="DejaVu Sans" font-size="16px" font-style="normal" font-weight="normal" id="text2551-bs" stroke-width="1px" systemLanguage="bs" text-anchor="middle" x="332.48" xml:space="preserve" y="351.49">
    <tspan id="tspan2553-bs" x="332.48" y="351.49">Ribe</tspan>
   </text>
   <text fill="#000000" font-family="DejaVu Sans" font-size="16px" font-style="normal" font-weight="normal" id="text2551-es" stroke-width="1px" systemLanguage="es" text-anchor="middle" x="332.48" xml:space="preserve" y="351.49">
    <tspan id="tspan2553-es" x="332.48" y="351.49">Piscis</tspan>
   </text>
   <text fill="#000000" font-family="DejaVu Sans" font-size="16px" font-style="normal" font-weight="normal" id="text2551-fr" stroke-width="1px" systemLanguage="fr" text-anchor="middle" x="332.48" xml:space="preserve" y="351.49">
    <tspan id="tspan2553-fr" x="332.48" y="351.49">Poissons</tspan>
   </text>
   <text fill="#000000" font-family="DejaVu Sans" font-size="16px" font-style="normal" font-weight="normal" id="text2551" stroke-width="1px" text-anchor="middle" x="332.48" xml:space="preserve" y="351.49">
    <tspan id="tspan2553" x="332.48" y="351.49">Pisces</tspan>
   </text>
  </switch>
  <switch transform="translate(28 150) matrix(1.02176 0 0 1 -32.9751 -21.8)">
   <text fill="#000000" font-family="DejaVu Sans" font-size="16px" font-style="normal" font-weight="normal" id="text2555-bs" stroke-width="1px" systemLanguage="bs" text-anchor="middle" x="244.46" xml:space="preserve" y="351.49">
    <tspan id="tspan2557-bs" x="244.46" y="351.49">Vodolija</tspan>
   </text>
   <text fill="#000000" font-family="DejaVu Sans" font-size="16px" font-style="normal" font-weight="normal" id="text2555-es" stroke-width="1px" systemLanguage="es" text-anchor="middle" x="244.46" xml:space="preserve" y="351.49">
    <tspan id="tspan2557-es" x="244.46" y="351.49">Acuario</tspan>
   </text>
   <text fill="#000000" font-family="DejaVu Sans" font-size="16px" font-style="normal" font-weight="normal" id="text2555-fr" stroke-width="1px" systemLanguage="fr" text-anchor="middle" x="244.46" xml:space="preserve" y="351.49">
    <tspan id="tspan2557-fr" x="244.46" y="351.49">Verseau</tspan>
   </text>
   <text fill="#000000" font-family="DejaVu Sans" font-size="16px" font-style="normal" font-weight="normal" id="text2555" stroke-width="1px" text-anchor="middle" x="244.46" xml:space="preserve" y="351.49">
    <tspan id="tspan2557" x="244.46" y="351.49">Aquarius</tspan>
   </text>
  </switch>
  <switch transform="translate(-12 152) matrix(1.02176 0 0 1 -32.9751 -21.8)">
   <text fill="#000000" font-family="DejaVu Sans" font-size="16px" font-style="normal" font-weight="normal" id="text2559-bs" stroke-width="1px" systemLanguage="bs" text-anchor="middle" x="155.61" xml:space="preserve" y="351.49">
    <tspan id="tspan2561-bs" x="155.61" y="351.49">Jarac</tspan>
   </text>
   <text fill="#000000" font-family="DejaVu Sans" font-size="16px" font-style="normal" font-weight="normal" id="text2559-es" stroke-width="1px" systemLanguage="es" text-anchor="middle" x="155.61" xml:space="preserve" y="351.49">
    <tspan id="tspan2561-es" x="155.61" y="351.49">Capricornio</tspan>
   </text>
   <text fill="#000000" font-family="DejaVu Sans" font-size="16px" font-style="normal" font-weight="normal" id="text2559-fr" stroke-width="1px" systemLanguage="fr" text-anchor="middle" x="155.61" xml:space="preserve" y="351.49">
    <tspan id="tspan2561-fr" x="155.61" y="351.49">Capricorne</tspan>
   </text>
   <text fill="#000000" font-family="DejaVu Sans" font-size="16px" font-style="normal" font-weight="normal" id="text2559" stroke-width="1px" text-anchor="middle" x="155.61" xml:space="preserve" y="351.49">
    <tspan id="tspan2561" x="155.61" y="351.49">Capricorn</tspan>
   </text>
  </switch>
  <switch transform="translate(-210 9) matrix(1.02176 0 0 1 -32.9751 -21.8)">
   <text fill="#000000" font-family="DejaVu Sans" font-size="16px" font-style="normal" font-weight="normal" id="text2563-bs" stroke-width="1px" systemLanguage="bs" text-anchor="middle" x="66.49" xml:space="preserve" y="351.49">
    <tspan id="tspan2565-bs" x="66.49" y="351.49">Strijelac</tspan>
   </text>
   <text fill="#000000" font-family="DejaVu Sans" font-size="16px" font-style="normal" font-weight="normal" id="text2563-es" stroke-width="1px" systemLanguage="es" text-anchor="middle" x="66.49" xml:space="preserve" y="351.49">
    <tspan id="tspan2565-es" x="66.49" y="351.49">Sagitario</tspan>
   </text>
   <text fill="#000000" font-family="DejaVu Sans" font-size="16px" font-style="normal" font-weight="normal" id="text2563-fr" stroke-width="1px" systemLanguage="fr" text-anchor="middle" x="66.49" xml:space="preserve" y="351.49">
    <tspan id="tspan2565-fr" x="66.49" y="351.49">Sagittaire</tspan>
   </text>
   <text fill="#000000" font-family="DejaVu Sans" font-size="16px" font-style="normal" font-weight="normal" id="text2563" stroke-width="1px" text-anchor="middle" x="66.49" xml:space="preserve" y="351.49">
    <tspan id="tspan2565" x="66.49" y="351.49">Sagittarius</tspan>
   </text>
  </switch>
  <path d="m510.85,69.75l0,-3.78c0,-2.98 -0.65,-8.29 -1.98,-15.94c-0.59,-3.6 -1.57,-7.35 -2.93,-11.25c-1.39,-3.96 -2.83,-7.06 -4.34,-9.31c-1.18,-1.71 -2.56,-2.56 -4.18,-2.56c-1.84,0 -3.12,0.68 -3.83,2.06c-0.66,1.27 -0.99,2.65 -0.99,4.15c0,3.17 1.15,6.04 3.47,8.6l-5.43,0c-1.87,-2.81 -2.81,-5.78 -2.81,-8.91c0,-3.27 0.89,-5.83 2.69,-7.69c1.85,-1.91 4.1,-2.87 6.73,-2.87c3.4,0 6.07,1.37 7.98,4.12c2.18,3.11 3.98,6.88 5.43,11.32c1.02,3.23 1.89,6.8 2.6,10.72c0.69,-3.92 1.56,-7.49 2.59,-10.72c1.36,-4.34 3.17,-8.11 5.43,-11.32c1.91,-2.75 4.58,-4.12 7.98,-4.12c2.64,0 4.88,0.96 6.74,2.87c1.78,1.86 2.68,4.42 2.68,7.69c0,3.13 -0.94,6.1 -2.81,8.91l-5.43,0c2.32,-2.56 3.47,-5.43 3.47,-8.6c0,-1.5 -0.33,-2.88 -0.98,-4.15c-0.73,-1.38 -2,-2.06 -3.83,-2.06c-1.62,0 -3.01,0.85 -4.19,2.56c-1.51,2.25 -2.95,5.35 -4.34,9.31c-1.36,3.9 -2.34,7.65 -2.93,11.25c-1.33,7.65 -1.98,12.96 -1.98,15.94l0,3.78l-4.79,0" fill="#000000" id="svg_1" stroke-width="1px"/>
  <path d="m572.06,34.59c-0.58,-1.33 -1.4,-2.52 -2.46,-3.56c-0.98,-0.96 -2.18,-1.75 -3.61,-2.37c-1.24,-0.55 -2.65,-0.82 -4.25,-0.82l0,-4.68c2.2,0 4.22,0.38 6.07,1.15c1.94,0.81 3.66,1.95 5.17,3.41c1.53,1.48 2.71,3.18 3.51,5.09c0.57,1.34 1.4,2.52 2.46,3.56c0.98,0.96 2.18,1.75 3.61,2.38c1.24,0.54 2.65,0.81 4.25,0.81c1.52,0 2.94,-0.27 4.24,-0.81c1.36,-0.56 2.56,-1.35 3.61,-2.38c1.06,-1.04 1.89,-2.22 2.46,-3.56c0.81,-1.91 1.98,-3.61 3.51,-5.09c1.51,-1.46 3.23,-2.6 5.17,-3.41c1.85,-0.77 3.87,-1.15 6.07,-1.15l0,4.68c-1.6,0 -3.01,0.27 -4.25,0.82c-1.43,0.62 -2.63,1.41 -3.61,2.37c-1.06,1.04 -1.89,2.23 -2.46,3.56c-0.81,1.9 -1.98,3.6 -3.5,5.1c-0.75,0.73 -1.72,1.47 -2.91,2.22c1.2,0.75 2.17,1.49 2.91,2.21c1.52,1.5 2.7,3.2 3.5,5.1c0.79,1.87 1.19,3.88 1.19,6.03c0,2.08 -0.4,4.06 -1.19,5.94c-0.83,1.91 -2,3.61 -3.5,5.09c-1.51,1.46 -3.24,2.59 -5.18,3.41c-1.85,0.77 -3.87,1.15 -6.06,1.15c-2.31,0 -4.32,-0.38 -6.07,-1.15c-2.02,-0.9 -3.75,-2.03 -5.17,-3.41c-1.51,-1.48 -2.69,-3.18 -3.51,-5.09c-0.79,-1.88 -1.19,-3.86 -1.19,-5.94c0,-2.15 0.4,-4.16 1.19,-6.03c0.85,-2.02 2.02,-3.72 3.51,-5.1c0.91,-0.85 1.89,-1.59 2.93,-2.21c-1.06,-0.63 -2.04,-1.37 -2.93,-2.22c-1.49,-1.42 -2.67,-3.12 -3.51,-5.1m18.99,10.47c-1.3,-0.54 -2.72,-0.81 -4.24,-0.81c-1.54,0 -2.95,0.27 -4.25,0.81c-1.32,0.59 -2.52,1.38 -3.61,2.38c-1.11,1.12 -1.93,2.31 -2.46,3.56c-0.55,1.31 -0.83,2.73 -0.83,4.25c0,1.46 0.28,2.84 0.83,4.16c0.53,1.25 1.35,2.43 2.46,3.56c1.08,1 2.29,1.79 3.61,2.37c1.3,0.55 2.71,0.82 4.25,0.82c1.52,0 2.94,-0.27 4.24,-0.82c1.32,-0.58 2.52,-1.37 3.61,-2.37c1.11,-1.13 1.93,-2.31 2.46,-3.56c0.55,-1.32 0.83,-2.7 0.83,-4.16c0,-1.52 -0.28,-2.94 -0.83,-4.25c-0.53,-1.25 -1.35,-2.44 -2.46,-3.56c-1.08,-1 -2.29,-1.79 -3.61,-2.38" fill="#000000" id="svg_2" stroke-width="1px"/>
  <path d="m671.74,63.58c3.56,0.48 7.02,1.13 10.41,1.97l0,4.65c-7.54,-1.85 -15.48,-2.78 -23.82,-2.78c-8.35,0 -16.29,0.93 -23.83,2.78l0,-4.65c3.38,-0.84 6.86,-1.49 10.41,-1.97l0,-35.16c-3.56,-0.48 -7.03,-1.13 -10.41,-1.97l0,-4.65c7.54,1.85 15.48,2.78 23.83,2.78c8.34,0 16.28,-0.93 23.82,-2.78l0,4.65c-3.39,0.84 -6.86,1.49 -10.41,1.97l0,35.16m-4.79,-34.66c-2.83,0.23 -5.7,0.35 -8.61,0.35c-2.92,0 -5.79,-0.12 -8.62,-0.35l0,34.16c2.83,-0.23 5.7,-0.35 8.62,-0.35c2.91,0 5.78,0.12 8.61,0.35l0,-34.16" fill="#000000" id="svg_3" stroke-width="1px"/>
  <path d="m643.41,156.48c1.93,1.21 3.79,2.19 5.58,2.94c4.56,1.94 9.61,2.91 15.17,2.91c3.48,0 6.79,-0.39 9.93,-1.16c-0.28,-0.23 -0.53,-0.46 -0.77,-0.69c-0.96,-0.95 -1.67,-1.98 -2.12,-3.06c-0.46,-1.12 -0.69,-2.32 -0.69,-3.59c0,-1.25 0.24,-2.44 0.69,-3.56c0.49,-1.19 1.2,-2.21 2.12,-3.07c1,-0.93 2.03,-1.62 3.1,-2.06c1.1,-0.46 2.32,-0.69 3.64,-0.69c1.38,0 2.6,0.23 3.64,0.69c1.24,0.54 2.27,1.23 3.1,2.06c0.96,0.96 1.67,1.98 2.12,3.07c0.47,1.12 0.69,2.31 0.69,3.56c0,1.25 -0.22,2.45 -0.69,3.59c-0.51,1.25 -1.32,2.32 -2.43,3.22c-1.55,1.25 -3.33,2.29 -5.33,3.13c-5.19,2.16 -10.85,3.25 -16.98,3.25c-6.28,0 -11.94,-1.09 -16.99,-3.25c-1.3,-0.57 -2.55,-1.16 -3.76,-1.79l0,-5.5m34.83,1.72c0.55,0.23 1.15,0.35 1.82,0.35c0.66,0 1.27,-0.12 1.82,-0.35c0.57,-0.25 1.09,-0.59 1.56,-1.03c0.43,-0.42 0.78,-0.93 1.05,-1.53c0.24,-0.56 0.36,-1.17 0.36,-1.81c0,-0.63 -0.12,-1.22 -0.36,-1.78c-0.22,-0.55 -0.58,-1.06 -1.05,-1.53c-0.4,-0.4 -0.92,-0.74 -1.56,-1.04c-0.55,-0.23 -1.15,-0.34 -1.82,-0.34c-0.66,0 -1.27,0.11 -1.82,0.34c-0.57,0.25 -1.09,0.6 -1.56,1.04c-0.43,0.41 -0.78,0.92 -1.05,1.53c-0.24,0.56 -0.36,1.15 -0.36,1.78c0,0.64 0.12,1.25 0.36,1.81c0.24,0.54 0.58,1.05 1.05,1.53c0.4,0.4 0.92,0.74 1.56,1.03m11.36,-16.68c-1.93,-1.21 -3.79,-2.19 -5.58,-2.94c-4.56,-1.94 -9.61,-2.91 -15.17,-2.91c-3.48,0 -6.79,0.39 -9.93,1.16c0.28,0.23 0.53,0.46 0.77,0.69c0.96,0.95 1.67,1.97 2.12,3.06c0.46,1.12 0.69,2.32 0.69,3.59c0,1.25 -0.24,2.44 -0.69,3.56c-0.49,1.19 -1.2,2.21 -2.12,3.07c-1,0.93 -2.03,1.62 -3.1,2.06c-1.1,0.46 -2.32,0.69 -3.64,0.69c-1.38,0 -2.6,-0.23 -3.64,-0.69c-1.24,-0.54 -2.27,-1.23 -3.1,-2.06c-0.96,-0.96 -1.67,-1.98 -2.12,-3.07c-0.47,-1.12 -0.69,-2.31 -0.69,-3.56c0,-1.25 0.22,-2.45 0.69,-3.59c0.51,-1.25 1.32,-2.33 2.43,-3.22c1.55,-1.25 3.33,-2.29 5.33,-3.13c5.19,-2.16 10.85,-3.25 16.98,-3.25c6.28,0 11.94,1.09 16.99,3.25c1.3,0.57 2.55,1.16 3.76,1.79l0,5.5m-34.83,-1.72c-0.55,-0.23 -1.15,-0.35 -1.82,-0.35c-0.66,0 -1.27,0.12 -1.82,0.35c-0.57,0.25 -1.09,0.59 -1.56,1.03c-0.43,0.41 -0.78,0.92 -1.05,1.53c-0.24,0.56 -0.36,1.17 -0.36,1.81c0,0.63 0.12,1.22 0.36,1.78c0.22,0.54 0.58,1.05 1.05,1.53c0.4,0.4 0.92,0.74 1.56,1.04c0.55,0.22 1.15,0.34 1.82,0.34c0.66,0 1.27,-0.12 1.82,-0.34c0.57,-0.25 1.09,-0.6 1.56,-1.04c0.43,-0.41 0.78,-0.92 1.05,-1.53c0.24,-0.56 0.36,-1.15 0.36,-1.78c0,-0.64 -0.12,-1.25 -0.36,-1.81c-0.24,-0.54 -0.58,-1.05 -1.05,-1.53c-0.4,-0.4 -0.92,-0.74 -1.56,-1.03" fill="#000000" id="svg_4" stroke-width="1px"/>
  <path d="m544.37,210.48c-0.18,0.73 -0.29,1.34 -0.29,1.82c0,0.73 0.1,1.32 0.29,1.78c0.26,0.54 0.56,0.97 0.9,1.28c0.38,0.35 0.81,0.63 1.28,0.84c0.47,0.21 1.2,0.32 2.17,0.32c0.88,0 1.65,-0.15 2.3,-0.44c0.84,-0.36 1.53,-0.8 2.12,-1.35l3.38,3.32c-0.94,0.87 -2.18,1.66 -3.71,2.37c-1.1,0.52 -2.46,0.78 -4.09,0.78c-1.63,0 -2.95,-0.22 -3.95,-0.65c-1.15,-0.5 -2.1,-1.13 -2.87,-1.88c-0.86,-0.83 -1.49,-1.76 -1.92,-2.78c-0.43,-1.04 -0.63,-2.24 -0.63,-3.59c0,-1.48 0.21,-2.77 0.66,-3.88c1.62,-3.89 3.2,-6.83 4.73,-8.81c1.91,-2.48 3.39,-5.12 4.43,-7.91c0.47,-1.23 0.71,-2.62 0.71,-4.18c0,-1.69 -0.24,-3.1 -0.71,-4.22c-0.45,-1.09 -1.14,-2.11 -2.1,-3.07c-0.83,-0.83 -1.86,-1.52 -3.1,-2.06c-1.04,-0.46 -2.26,-0.69 -3.64,-0.69c-1.33,0 -2.53,0.23 -3.65,0.69c-1.06,0.44 -2.09,1.13 -3.1,2.06c-0.91,0.86 -1.61,1.88 -2.1,3.07c-0.47,1.12 -0.71,2.32 -0.71,3.59c0,1.35 0.24,2.54 0.71,3.56c0.57,1.23 1.39,2.77 2.46,4.63c1.42,2.44 2.14,4.75 2.14,6.94c0,1.25 -0.24,2.43 -0.71,3.56c-0.45,1.08 -1.14,2.1 -2.1,3.06c-0.83,0.83 -1.86,1.52 -3.1,2.06c-1.04,0.46 -2.26,0.69 -3.64,0.69c-1.33,0 -2.53,-0.23 -3.65,-0.69c-1.06,-0.43 -2.09,-1.12 -3.1,-2.06c-0.91,-0.85 -1.61,-1.87 -2.1,-3.06c-0.47,-1.13 -0.71,-2.31 -0.71,-3.56c0,-1.28 0.24,-2.47 0.71,-3.6c0.45,-1.08 1.14,-2.1 2.1,-3.06c0.83,-0.83 1.86,-1.52 3.1,-2.06c1.04,-0.46 2.26,-0.69 3.65,-0.69l0.54,0c-0.73,-1.61 -1.09,-3.5 -1.09,-5.69c0,-2.02 0.36,-3.83 1.06,-5.44c0.76,-1.75 1.82,-3.28 3.16,-4.59c1.34,-1.31 2.89,-2.33 4.66,-3.06c1.67,-0.69 3.48,-1.03 5.47,-1.03c2.08,0 3.9,0.34 5.46,1.03c1.85,0.81 3.4,1.83 4.66,3.06c1.41,1.38 2.46,2.91 3.17,4.59c0.69,1.69 1.05,3.71 1.05,6.07c0,2.33 -0.36,4.32 -1.05,5.97c-1.33,3.14 -2.95,6.04 -4.89,8.68c-2.19,3.07 -3.64,5.83 -4.34,8.28m-16.02,-12.84c-0.56,-0.23 -1.16,-0.34 -1.82,-0.34c-0.66,0 -1.27,0.11 -1.83,0.34c-0.57,0.25 -1.09,0.59 -1.56,1.03c-0.47,0.48 -0.82,0.99 -1.05,1.53c-0.24,0.57 -0.35,1.17 -0.35,1.82c0,0.62 0.11,1.21 0.35,1.78c0.24,0.54 0.58,1.05 1.05,1.53c0.47,0.44 0.99,0.78 1.56,1.03c0.56,0.23 1.16,0.34 1.83,0.34c0.65,0 1.26,-0.11 1.82,-0.34c0.57,-0.25 1.09,-0.59 1.56,-1.03c0.47,-0.48 0.82,-0.99 1.05,-1.53c0.24,-0.57 0.35,-1.16 0.35,-1.78c0,-0.65 -0.11,-1.25 -0.35,-1.82c-0.24,-0.54 -0.58,-1.05 -1.05,-1.53c-0.47,-0.44 -0.99,-0.78 -1.56,-1.03" fill="#000000" id="svg_5" stroke-width="1px"/>
  <path d="m449.88,114.47c2.36,-2.34 4.17,-4.99 5.43,-7.97c1.26,-3 1.89,-6.17 1.89,-9.5c0,-2.9 -0.18,-5 -0.55,-6.31c-0.55,-2.02 -1.32,-3.03 -2.3,-3.03c-0.55,0 -1.33,0.98 -2.33,2.93c-1.42,2.8 -2.14,5.92 -2.14,9.38l0,14.5m-3.83,8.62c-0.92,0.48 -1.85,0.93 -2.81,1.35c-2.36,1.02 -4.94,1.67 -7.72,1.97l0,-4.72c2.1,-0.29 4.08,-0.83 5.91,-1.6c1.32,-0.56 2.56,-1.21 3.73,-1.93c-0.04,-0.48 -0.06,-0.98 -0.06,-1.5l0,-28.75c0,-3.71 -0.22,-6.51 -0.66,-8.41c-0.68,-2.92 -1.52,-4.38 -2.52,-4.38c-1.02,0 -2.44,1.87 -4.25,5.6c-1.43,2.94 -2.14,6.06 -2.14,9.37l0,26.6l-4.79,0l0,-28.78c0,-3.69 -0.22,-6.49 -0.67,-8.41c-0.65,-2.92 -1.5,-4.38 -2.52,-4.38c-1.02,0 -2.43,1.87 -4.24,5.6c-1.43,2.94 -2.15,6.06 -2.15,9.37l0,26.6l-4.78,0l0,-28.78c0,-4.36 -0.58,-8.22 -1.73,-11.6c-0.66,-1.94 -1.79,-3.89 -3.38,-5.87l4.91,0c0.83,0.81 1.56,1.81 2.21,3c0.72,1.37 1.3,2.91 1.72,4.62c0.64,-1.85 1.49,-3.46 2.55,-4.81c2.16,-2.71 3.91,-4.06 5.27,-4.06c1.51,0 3.12,1.41 4.82,4.25c0.65,1.08 1.24,2.62 1.73,4.62c0.63,-1.85 1.48,-3.46 2.55,-4.81c2.15,-2.71 4.01,-4.06 5.58,-4.06c1.51,0 3.13,1.41 4.82,4.25c0.92,1.5 1.49,3.04 1.73,4.62c0.32,2.19 0.53,4.68 0.64,7.47c0.42,-0.85 0.95,-1.66 1.59,-2.41c1.55,-1.81 2.91,-2.71 4.09,-2.71c1.7,0 3.18,1.64 4.43,4.93c1.39,3.63 2.07,7.51 2.07,11.66c0,4.06 -0.75,7.82 -2.23,11.28c-1.62,3.75 -3.84,6.98 -6.68,9.69c-0.89,0.85 -1.83,1.65 -2.81,2.4c0.24,0.98 0.55,1.93 0.93,2.85c0.83,1.98 2.12,3.84 3.86,5.59l-6.19,0c-0.96,-1.5 -1.67,-2.77 -2.1,-3.81c-0.26,-0.63 -0.49,-1.26 -0.71,-1.91" fill="#000000" id="svg_6" stroke-width="1px"/>
  <path d="m679.72,301.16c-1.63,0 -2.95,-0.22 -3.95,-0.66c-1.15,-0.5 -2.12,-1.13 -2.87,-1.88c-0.86,-0.83 -1.49,-1.76 -1.92,-2.78c-0.43,-1.04 -0.64,-2.25 -0.63,-3.62l0,-28.75c-0.01,-3.71 -0.22,-6.51 -0.67,-8.41c-0.68,-2.91 -1.52,-4.37 -2.52,-4.37c-1.02,0 -2.44,1.86 -4.25,5.59c-1.42,2.94 -2.14,6.06 -2.14,9.38l0,26.59l-4.79,0l0,-28.78c0,-3.69 -0.22,-6.49 -0.66,-8.41c-0.66,-2.91 -1.5,-4.37 -2.52,-4.37c-1.02,0 -2.44,1.86 -4.25,5.59c-1.42,2.94 -2.14,6.06 -2.14,9.38l0,26.59l-4.79,0l0,-28.78c0,-4.36 -0.57,-8.22 -1.73,-11.6c-0.65,-1.93 -1.79,-3.89 -3.38,-5.87l4.91,0c0.83,0.81 1.56,1.81 2.21,3c0.73,1.37 1.3,2.92 1.73,4.62c0.63,-1.85 1.48,-3.45 2.55,-4.81c2.15,-2.71 3.9,-4.06 5.26,-4.06c1.51,0 3.12,1.42 4.82,4.25c0.66,1.08 1.24,2.62 1.73,4.62c0.63,-1.85 1.49,-3.45 2.55,-4.81c2.15,-2.71 4.02,-4.06 5.59,-4.06c1.51,0 3.12,1.42 4.82,4.25c0.91,1.5 1.48,3.04 1.72,4.62c0.43,2.9 0.64,5.39 0.64,7.47l0,31.16c0,0.79 0.09,1.38 0.29,1.78c0.26,0.54 0.55,0.97 0.9,1.28c0.38,0.36 0.81,0.64 1.28,0.85c0.46,0.2 1.19,0.31 2.17,0.31l1.85,0l0,-4.06l6.84,6.4l-6.84,6.44l0,-4.09l-1.79,0" fill="#000000" id="svg_7" stroke-width="1px"/>
  <path d="m482.52,404.39l-17.24,16.88l8.65,8.46l-3.39,3.32l-8.64,-8.47l-11.31,11.06l-3.38,-3.31l11.3,-11.06l-8.65,-8.47l3.39,-3.32l8.65,8.47l17.27,-16.9l-13.12,0l0,-4.69l21.26,0l0,20.81l-4.79,0l0,-12.78" fill="#000000" id="svg_8" stroke-width="1px"/>
  <path d="m537.08,324.39c-0.38,-0.56 -0.75,-1.16 -1.08,-1.78c-1.73,-3.17 -2.59,-6.66 -2.59,-10.47l0,-2.62c0,-3.71 -0.22,-6.52 -0.67,-8.41c-0.67,-2.92 -1.52,-4.38 -2.52,-4.38c-1.02,0 -2.43,1.87 -4.24,5.6c-1.43,2.94 -2.15,6.06 -2.15,9.37l0,7.85l-4.78,0l0,-10.03c0,-3.69 -0.28,-6.49 -0.84,-8.41c-0.85,-2.92 -2.54,-4.38 -5.07,-4.38l-2.3,0l0,-5.93l2.68,0c3.22,0 5.67,1.41 7.38,4.25c0.94,1.56 1.56,3.1 1.88,4.62c0.64,-1.85 1.49,-3.46 2.55,-4.81c2.16,-2.71 4.02,-4.06 5.59,-4.06c1.51,0 3.12,1.41 4.82,4.25c0.92,1.5 1.49,3.04 1.73,4.62c0.42,2.9 0.63,5.39 0.63,7.47l0,3.47c0,2.98 0.41,5.53 1.22,7.66c0.79,-1.69 1.69,-3.04 2.69,-4.04c0.95,-0.95 2.23,-1.75 3.83,-2.37c1.28,-0.5 2.75,-0.75 4.43,-0.75c1.43,0 2.75,0.25 3.95,0.75c1.24,0.5 2.36,1.24 3.36,2.22c0.97,0.96 1.73,2.06 2.26,3.31c0.51,1.23 0.77,2.53 0.77,3.91c0,1.35 -0.26,2.64 -0.77,3.87c-0.53,1.25 -1.29,2.36 -2.26,3.31c-0.92,0.9 -2.03,1.64 -3.36,2.22c-1.12,0.5 -2.55,0.75 -4.27,0.75c-1.75,0 -3.39,-0.25 -4.92,-0.75c-1.55,-0.5 -2.98,-1.27 -4.3,-2.31c-0.37,0.92 -0.75,1.78 -1.15,2.59c-0.94,1.84 -2.05,3.29 -3.35,4.35c-1.69,1.37 -3.25,2.33 -4.69,2.87c-1.75,0.67 -3.58,1 -5.5,1l-1.79,0l0,-4.68l1.79,0c1.43,0 2.64,-0.22 3.64,-0.66c1.24,-0.52 2.25,-1.15 3.03,-1.88c0.9,-0.79 1.65,-1.71 2.24,-2.78c0.68,-1.21 1.39,-2.81 2.14,-4.81m5.44,-1.22c1.59,1.71 3.14,2.77 4.63,3.19c0.95,0.27 1.9,0.41 2.84,0.41c1,0 1.81,-0.14 2.42,-0.41c0.68,-0.29 1.29,-0.69 1.82,-1.19c0.51,-0.5 0.93,-1.09 1.25,-1.78c0.28,-0.6 0.42,-1.3 0.42,-2.09c0,-0.75 -0.14,-1.46 -0.42,-2.13c-0.26,-0.62 -0.66,-1.22 -1.25,-1.78c-0.53,-0.5 -1.13,-0.9 -1.82,-1.19c-0.63,-0.27 -1.34,-0.4 -2.1,-0.4c-0.73,0 -1.48,0.13 -2.27,0.4c-0.87,0.32 -1.53,0.71 -1.98,1.19c-1.5,1.67 -2.69,3.59 -3.54,5.78" fill="#000000" id="svg_9" stroke-width="1px"/>
  <path d="m647.02,383.31l-3.71,-6.25l-11.05,6.25l-2.39,-4.03l15.22,-8.59l3.68,6.25l11.08,-6.25l3.67,6.25l11.09,-6.25l6.06,10.28l-4.15,2.34l-3.7,-6.25l-11.06,6.25l-3.7,-6.25l-11.05,6.25m0,20l-3.71,-6.25l-11.05,6.25l-2.39,-4.03l15.22,-8.59l3.68,6.25l11.08,-6.25l3.67,6.25l11.09,-6.25l6.06,10.28l-4.15,2.34l-3.7,-6.25l-11.06,6.25l-3.7,-6.25l-11.05,6.25" fill="#000000" id="svg_10" stroke-width="1px"/>
  <path d="m441.62,202.36l-10.02,0c-0.26,4.12 -1.14,7.97 -2.65,11.53c-1.39,3.27 -3.39,6.42 -6.01,9.44l-6.61,0c3.89,-3.71 6.62,-7.46 8.17,-11.25c1.28,-3.09 2.03,-6.33 2.27,-9.72l-9.48,0l0,-4.69l9.48,0c-0.24,-3.39 -0.99,-6.63 -2.27,-9.72c-1.57,-3.79 -4.3,-7.55 -8.17,-11.28l6.61,0c2.6,3.02 4.6,6.18 6.01,9.47c1.52,3.56 2.41,7.41 2.65,11.53l10.02,0c0.24,-4.12 1.11,-7.97 2.66,-11.53c1.4,-3.29 3.4,-6.45 6,-9.47l6.61,0c-3.87,3.73 -6.6,7.49 -8.17,11.28c-1.28,3.09 -2.03,6.33 -2.27,9.72l9.17,0l0,4.69l-9.17,0c0.24,3.39 0.99,6.63 2.27,9.72c1.55,3.79 4.28,7.54 8.17,11.25l-6.61,0c-2.62,-3.02 -4.62,-6.17 -6,-9.44c-1.51,-3.62 -2.4,-7.47 -2.66,-11.53" fill="#000000" id="svg_11" stroke-width="1px"/>
 </g>
</svg>