<?xml version="1.0"?>
<svg width="64" height="64" xmlns="http://www.w3.org/2000/svg" xmlns:svg="http://www.w3.org/2000/svg" display="inline" version="1.0">

 <metadata id="metadata7">image/svg+xmlAstro_signs12 February 2008Tavmjong BahAstrological signs</metadata>
 <g class="layer">
  <title>Layer 1</title>
  <path d="m350.43,551.79l-10.02,0c-0.26,4.12 -1.14,7.97 -2.65,11.53c-1.39,3.27 -3.39,6.42 -6.01,9.44l-6.61,0c3.89,-3.71 6.62,-7.46 8.17,-11.25c1.28,-3.09 2.03,-6.33 2.27,-9.72l-9.48,0l0,-4.69l9.48,0c-0.24,-3.39 -0.99,-6.63 -2.27,-9.72c-1.57,-3.79 -4.3,-7.55 -8.17,-11.28l6.61,0c2.6,3.02 4.6,6.18 6.01,9.47c1.52,3.56 2.41,7.41 2.65,11.53l10.02,0c0.24,-4.12 1.11,-7.97 2.66,-11.53c1.4,-3.29 3.4,-6.45 6,-9.47l6.61,0c-3.87,3.73 -6.6,7.49 -8.17,11.28c-1.28,3.09 -2.03,6.33 -2.27,9.72l9.17,0l0,4.69l-9.17,0c0.24,3.39 0.99,6.63 2.27,9.72c1.55,3.79 4.28,7.54 8.17,11.25l-6.61,0c-2.62,-3.02 -4.62,-6.17 -6,-9.44c-1.51,-3.62 -2.4,-7.47 -2.66,-11.53" fill="#000000" id="text2465" stroke-width="1px"/>
  <switch transform="translate(-114 -96) matrix(1.02176 0 0 1 76.2977 -178)">
   <text fill="#000000" font-family="DejaVu Sans" font-size="16px" font-style="normal" font-weight="normal" id="text2519-bs" stroke-width="1px" systemLanguage="bs" text-anchor="middle" x="66.96" xml:space="preserve" y="122.36">
    <tspan id="tspan2521-bs" x="66.96" y="122.36">Ovan</tspan>
   </text>
   <text fill="#000000" font-family="DejaVu Sans" font-size="16px" font-style="normal" font-weight="normal" id="text2519-fr" stroke-width="1px" systemLanguage="fr" text-anchor="middle" x="66.96" xml:space="preserve" y="122.36">
    <tspan id="tspan2521-fr" x="66.96" y="122.36">Bélier</tspan>
   </text>
   <text fill="#000000" font-family="DejaVu Sans" font-size="16px" font-style="normal" font-weight="normal" id="text2519" stroke-width="1px" text-anchor="middle" x="66.96" xml:space="preserve" y="122.36">
    <tspan id="tspan2521" x="66.96" y="122.36">Aries</tspan>
   </text>
  </switch>
  <switch transform="translate(97 -183) matrix(1.02176 0 0 1 -17.0505 -2)">
   <text fill="#000000" font-family="DejaVu Sans" font-size="16px" font-style="normal" font-weight="normal" id="text2523-bs" stroke-width="1px" systemLanguage="bs" text-anchor="middle" x="155.79" xml:space="preserve" y="122.36">
    <tspan id="tspan2525-bs" x="155.79" y="122.36">Bik</tspan>
   </text>
   <text fill="#000000" font-family="DejaVu Sans" font-size="16px" font-style="normal" font-weight="normal" id="text2523-es" stroke-width="1px" systemLanguage="es" text-anchor="middle" x="155.79" xml:space="preserve" y="122.36">
    <tspan id="tspan2525-es" x="155.79" y="122.36">Tauro</tspan>
   </text>
   <text fill="#000000" font-family="DejaVu Sans" font-size="16px" font-style="normal" font-weight="normal" id="text2523-fr" stroke-width="1px" systemLanguage="fr" text-anchor="middle" x="155.79" xml:space="preserve" y="122.36">
    <tspan id="tspan2525-fr" x="155.79" y="122.36">Taureau</tspan>
   </text>
   <text fill="#000000" font-family="DejaVu Sans" font-size="16px" font-style="normal" font-weight="normal" id="text2523" stroke-width="1px" text-anchor="middle" x="155.79" xml:space="preserve" y="122.36">
    <tspan id="tspan2525" x="155.79" y="122.36">Taurus</tspan>
   </text>
  </switch>
  <switch transform="matrix(1 0 0 1 0 0) translate(55 -154) matrix(1.02176 0 0 1 -32.9751 -21.8)">
   <text fill="#000000" font-family="DejaVu Sans" font-size="16px" font-style="normal" font-weight="normal" id="text2527-bs" stroke-width="1px" systemLanguage="bs" text-anchor="middle" x="244.42" xml:space="preserve" y="122.36">
    <tspan id="tspan2529-bs" x="244.42" y="122.36">Blizanci</tspan>
   </text>
   <text fill="#000000" font-family="DejaVu Sans" font-size="16px" font-style="normal" font-weight="normal" id="text2527-es" stroke-width="1px" systemLanguage="es" text-anchor="middle" x="244.42" xml:space="preserve" y="122.36">
    <tspan id="tspan2529-es" x="244.42" y="122.36">Géminis</tspan>
   </text>
   <text fill="#000000" font-family="DejaVu Sans" font-size="16px" font-style="normal" font-weight="normal" id="text2527-fr" stroke-width="1px" systemLanguage="fr" text-anchor="middle" x="244.42" xml:space="preserve" y="122.36">
    <tspan id="tspan2529-fr" x="244.42" y="122.36">Gémeaux</tspan>
   </text>
   <text fill="#000000" font-family="DejaVu Sans" font-size="16px" font-style="normal" font-weight="normal" id="text2527" stroke-width="1px" text-anchor="middle" x="244.42" xml:space="preserve" y="122.36">
    <tspan id="tspan2529" x="244.42" y="122.36">Gemini</tspan>
   </text>
  </switch>
  <switch transform="matrix(1 0 0 1 0 0) translate(152 -175) matrix(1 0 0 1 0 0) matrix(1.02176 0 0 1 -0.702309 0)">
   <text fill="#000000" font-family="DejaVu Sans" font-size="16px" font-style="normal" font-weight="normal" id="text2531-bs" stroke-width="1px" systemLanguage="bs" text-anchor="middle" x="332.43" xml:space="preserve" y="122.36">
    <tspan id="tspan2533-bs" x="332.43" y="122.36">Rak</tspan>
   </text>
   <text fill="#000000" font-family="DejaVu Sans" font-size="16px" font-style="normal" font-weight="normal" id="text2531-es" stroke-width="1px" systemLanguage="es" text-anchor="middle" x="332.43" xml:space="preserve" y="122.36">
    <tspan id="tspan2533-es" x="332.43" y="122.36">Cáncer</tspan>
   </text>
   <text fill="#000000" font-family="DejaVu Sans" font-size="16px" font-style="normal" font-weight="normal" id="text2531-fr" stroke-width="1px" systemLanguage="fr" text-anchor="middle" x="332.43" xml:space="preserve" y="122.36">
    <tspan id="tspan2533-fr" x="332.43" y="122.36">Cancer</tspan>
   </text>
   <text fill="#000000" font-family="DejaVu Sans" font-size="16px" font-style="normal" font-weight="normal" id="text2531" stroke-width="1px" text-anchor="middle" x="332.43" xml:space="preserve" y="122.36">
    <tspan id="tspan2533" x="332.43" y="122.36">Cancer</tspan>
   </text>
  </switch>
  <switch transform="matrix(1 0 0 1 0 0) translate(-202 -9) matrix(1.02176 0 0 1 -32.9751 -21.8)">
   <text fill="#000000" font-family="DejaVu Sans" font-size="16px" font-style="normal" font-weight="normal" id="text2535-bs" stroke-width="1px" systemLanguage="bs" text-anchor="middle" x="66.27" xml:space="preserve" y="235.38">
    <tspan id="tspan2537-bs" x="66.27" y="235.38">Lav</tspan>
   </text>
   <text fill="#000000" font-family="DejaVu Sans" font-size="16px" font-style="normal" font-weight="normal" id="text2535-fr" stroke-width="1px" systemLanguage="fr" text-anchor="middle" x="66.27" xml:space="preserve" y="235.38">
    <tspan id="tspan2537-fr" x="66.27" y="235.38">Lion</tspan>
   </text>
   <text fill="#000000" font-family="DejaVu Sans" font-size="16px" font-style="normal" font-weight="normal" id="text2535" stroke-width="1px" text-anchor="middle" x="66.27" xml:space="preserve" y="235.38">
    <tspan id="tspan2537" x="66.27" y="235.38">Leo</tspan>
   </text>
  </switch>
  <switch transform="translate(-194 -18) matrix(1.02176 0 0 1 -32.9751 -21.8)">
   <text fill="#000000" font-family="DejaVu Sans" font-size="16px" font-style="normal" font-weight="normal" id="text2539-bs" stroke-width="1px" systemLanguage="bs" text-anchor="middle" x="155.75" xml:space="preserve" y="235.38">
    <tspan id="tspan2541-bs" x="155.75" y="235.38">Djevica</tspan>
   </text>
   <text fill="#000000" font-family="DejaVu Sans" font-size="16px" font-style="normal" font-weight="normal" id="text2539-fr" stroke-width="1px" systemLanguage="fr" text-anchor="middle" x="155.75" xml:space="preserve" y="235.38">
    <tspan id="tspan2541-fr" x="155.75" y="235.38">Vierge</tspan>
   </text>
   <text fill="#000000" font-family="DejaVu Sans" font-size="16px" font-style="normal" font-weight="normal" id="text2539" stroke-width="1px" text-anchor="middle" x="155.75" xml:space="preserve" y="235.38">
    <tspan id="tspan2541" x="155.75" y="235.38">Virgo</tspan>
   </text>
  </switch>
  <switch transform="translate(-129 210) matrix(1.02176 0 0 1 -32.9751 -21.8)">
   <text fill="#000000" font-family="DejaVu Sans" font-size="16px" font-style="normal" font-weight="normal" id="text2543-bs" stroke-width="1px" systemLanguage="bs" text-anchor="middle" x="244.09" xml:space="preserve" y="235.38">
    <tspan id="tspan2545-bs" x="244.09" y="235.38">Vaga</tspan>
   </text>
   <text fill="#000000" font-family="DejaVu Sans" font-size="16px" font-style="normal" font-weight="normal" id="text2543-fr" stroke-width="1px" systemLanguage="fr" text-anchor="middle" x="244.09" xml:space="preserve" y="235.38">
    <tspan id="tspan2545-fr" x="244.09" y="235.38">Balance</tspan>
   </text>
   <text fill="#000000" font-family="DejaVu Sans" font-size="16px" font-style="normal" font-weight="normal" id="text2543" stroke-width="1px" text-anchor="middle" x="244.09" xml:space="preserve" y="235.38">
    <tspan id="tspan2545" x="244.09" y="235.38">Libra</tspan>
   </text>
  </switch>
  <switch transform="translate(9 256) matrix(1.02176 0 0 1 -32.9751 -21.8)">
   <text fill="#000000" font-family="DejaVu Sans" font-size="16px" font-style="normal" font-weight="normal" id="text2547-bs" stroke-width="1px" systemLanguage="bs" text-anchor="middle" x="332.78" xml:space="preserve" y="235.38">
    <tspan id="tspan2549-bs" x="332.78" y="235.38">Škorpion</tspan>
   </text>
   <text fill="#000000" font-family="DejaVu Sans" font-size="16px" font-style="normal" font-weight="normal" id="text2547-es" stroke-width="1px" systemLanguage="es" text-anchor="middle" x="332.78" xml:space="preserve" y="235.38">
    <tspan id="tspan2549-es" x="332.78" y="235.38">Escorpio</tspan>
   </text>
   <text fill="#000000" font-family="DejaVu Sans" font-size="16px" font-style="normal" font-weight="normal" id="text2547-fr" stroke-width="1px" systemLanguage="fr" text-anchor="middle" x="332.78" xml:space="preserve" y="235.38">
    <tspan id="tspan2549-fr" x="332.78" y="235.38">Scorpion</tspan>
   </text>
   <text fill="#000000" font-family="DejaVu Sans" font-size="16px" font-style="normal" font-weight="normal" id="text2547" stroke-width="1px" text-anchor="middle" x="332.78" xml:space="preserve" y="235.38">
    <tspan id="tspan2549" x="332.78" y="235.38">Scorpio</tspan>
   </text>
  </switch>
  <switch transform="matrix(1 0 0 1 0 0) translate(-6 176) matrix(1.02176 0 0 1 -32.9751 -21.8)">
   <text fill="#000000" font-family="DejaVu Sans" font-size="16px" font-style="normal" font-weight="normal" id="text2551-bs" stroke-width="1px" systemLanguage="bs" text-anchor="middle" x="332.48" xml:space="preserve" y="351.49">
    <tspan id="tspan2553-bs" x="332.48" y="351.49">Ribe</tspan>
   </text>
   <text fill="#000000" font-family="DejaVu Sans" font-size="16px" font-style="normal" font-weight="normal" id="text2551-es" stroke-width="1px" systemLanguage="es" text-anchor="middle" x="332.48" xml:space="preserve" y="351.49">
    <tspan id="tspan2553-es" x="332.48" y="351.49">Piscis</tspan>
   </text>
   <text fill="#000000" font-family="DejaVu Sans" font-size="16px" font-style="normal" font-weight="normal" id="text2551-fr" stroke-width="1px" systemLanguage="fr" text-anchor="middle" x="332.48" xml:space="preserve" y="351.49">
    <tspan id="tspan2553-fr" x="332.48" y="351.49">Poissons</tspan>
   </text>
   <text fill="#000000" font-family="DejaVu Sans" font-size="16px" font-style="normal" font-weight="normal" id="text2551" stroke-width="1px" text-anchor="middle" x="332.48" xml:space="preserve" y="351.49">
    <tspan id="tspan2553" x="332.48" y="351.49">Pisces</tspan>
   </text>
  </switch>
  <switch transform="translate(28 150) matrix(1.02176 0 0 1 -32.9751 -21.8)">
   <text fill="#000000" font-family="DejaVu Sans" font-size="16px" font-style="normal" font-weight="normal" id="text2555-bs" stroke-width="1px" systemLanguage="bs" text-anchor="middle" x="244.46" xml:space="preserve" y="351.49">
    <tspan id="tspan2557-bs" x="244.46" y="351.49">Vodolija</tspan>
   </text>
   <text fill="#000000" font-family="DejaVu Sans" font-size="16px" font-style="normal" font-weight="normal" id="text2555-es" stroke-width="1px" systemLanguage="es" text-anchor="middle" x="244.46" xml:space="preserve" y="351.49">
    <tspan id="tspan2557-es" x="244.46" y="351.49">Acuario</tspan>
   </text>
   <text fill="#000000" font-family="DejaVu Sans" font-size="16px" font-style="normal" font-weight="normal" id="text2555-fr" stroke-width="1px" systemLanguage="fr" text-anchor="middle" x="244.46" xml:space="preserve" y="351.49">
    <tspan id="tspan2557-fr" x="244.46" y="351.49">Verseau</tspan>
   </text>
   <text fill="#000000" font-family="DejaVu Sans" font-size="16px" font-style="normal" font-weight="normal" id="text2555" stroke-width="1px" text-anchor="middle" x="244.46" xml:space="preserve" y="351.49">
    <tspan id="tspan2557" x="244.46" y="351.49">Aquarius</tspan>
   </text>
  </switch>
  <switch transform="translate(-12 152) matrix(1.02176 0 0 1 -32.9751 -21.8)">
   <text fill="#000000" font-family="DejaVu Sans" font-size="16px" font-style="normal" font-weight="normal" id="text2559-bs" stroke-width="1px" systemLanguage="bs" text-anchor="middle" x="155.61" xml:space="preserve" y="351.49">
    <tspan id="tspan2561-bs" x="155.61" y="351.49">Jarac</tspan>
   </text>
   <text fill="#000000" font-family="DejaVu Sans" font-size="16px" font-style="normal" font-weight="normal" id="text2559-es" stroke-width="1px" systemLanguage="es" text-anchor="middle" x="155.61" xml:space="preserve" y="351.49">
    <tspan id="tspan2561-es" x="155.61" y="351.49">Capricornio</tspan>
   </text>
   <text fill="#000000" font-family="DejaVu Sans" font-size="16px" font-style="normal" font-weight="normal" id="text2559-fr" stroke-width="1px" systemLanguage="fr" text-anchor="middle" x="155.61" xml:space="preserve" y="351.49">
    <tspan id="tspan2561-fr" x="155.61" y="351.49">Capricorne</tspan>
   </text>
   <text fill="#000000" font-family="DejaVu Sans" font-size="16px" font-style="normal" font-weight="normal" id="text2559" stroke-width="1px" text-anchor="middle" x="155.61" xml:space="preserve" y="351.49">
    <tspan id="tspan2561" x="155.61" y="351.49">Capricorn</tspan>
   </text>
  </switch>
  <switch transform="translate(-210 9) matrix(1.02176 0 0 1 -32.9751 -21.8)">
   <text fill="#000000" font-family="DejaVu Sans" font-size="16px" font-style="normal" font-weight="normal" id="text2563-bs" stroke-width="1px" systemLanguage="bs" text-anchor="middle" x="66.49" xml:space="preserve" y="351.49">
    <tspan id="tspan2565-bs" x="66.49" y="351.49">Strijelac</tspan>
   </text>
   <text fill="#000000" font-family="DejaVu Sans" font-size="16px" font-style="normal" font-weight="normal" id="text2563-es" stroke-width="1px" systemLanguage="es" text-anchor="middle" x="66.49" xml:space="preserve" y="351.49">
    <tspan id="tspan2565-es" x="66.49" y="351.49">Sagitario</tspan>
   </text>
   <text fill="#000000" font-family="DejaVu Sans" font-size="16px" font-style="normal" font-weight="normal" id="text2563-fr" stroke-width="1px" systemLanguage="fr" text-anchor="middle" x="66.49" xml:space="preserve" y="351.49">
    <tspan id="tspan2565-fr" x="66.49" y="351.49">Sagittaire</tspan>
   </text>
   <text fill="#000000" font-family="DejaVu Sans" font-size="16px" font-style="normal" font-weight="normal" id="text2563" stroke-width="1px" text-anchor="middle" x="66.49" xml:space="preserve" y="351.49">
    <tspan id="tspan2565" x="66.49" y="351.49">Sagittarius</tspan>
   </text>
  </switch>
  <path d="m48.19,55.28c-1.53,0 -2.76,-0.2 -3.7,-0.59c-1.08,-0.44 -1.98,-1.01 -2.69,-1.67c-0.8,-0.74 -1.4,-1.57 -1.8,-2.47c-0.4,-0.93 -0.6,-2 -0.59,-3.22l0,-25.58c-0.01,-3.3 -0.21,-5.79 -0.63,-7.48c-0.64,-2.59 -1.42,-3.89 -2.36,-3.89c-0.96,0 -2.29,1.66 -3.98,4.97c-1.33,2.62 -2,5.39 -2,8.35l0,23.66l-4.48,0l0,-25.61c0,-3.28 -0.21,-5.77 -0.62,-7.48c-0.62,-2.59 -1.41,-3.89 -2.36,-3.89c-0.96,0 -2.29,1.66 -3.98,4.97c-1.33,2.62 -2,5.39 -2,8.35l0,23.66l-4.48,0l0,-25.61c0,-3.88 -0.54,-7.31 -1.62,-10.32c-0.61,-1.72 -1.67,-3.46 -3.16,-5.22l4.6,0c0.77,0.72 1.46,1.61 2.07,2.67c0.68,1.22 1.21,2.6 1.62,4.11c0.59,-1.65 1.39,-3.07 2.39,-4.28c2.01,-2.41 3.65,-3.61 4.92,-3.61c1.41,0 2.92,1.26 4.51,3.78c0.62,0.96 1.16,2.33 1.62,4.11c0.59,-1.65 1.4,-3.07 2.39,-4.28c2.01,-2.41 3.76,-3.61 5.23,-3.61c1.41,0 2.92,1.26 4.51,3.78c0.85,1.33 1.39,2.71 1.61,4.11c0.4,2.58 0.6,4.8 0.6,6.65l0,27.73c0,0.7 0.09,1.23 0.27,1.58c0.24,0.48 0.52,0.86 0.84,1.14c0.35,0.32 0.76,0.57 1.2,0.76c0.43,0.18 1.11,0.28 2.03,0.28l1.73,0l0,-3.61l6.4,5.69l-6.4,5.73l0,-3.64l-1.67,0" fill="#000000" id="svg_7" stroke-width="1px"/>
  <path d="m482.52,404.39l-17.24,16.88l8.65,8.46l-3.39,3.32l-8.64,-8.47l-11.31,11.06l-3.38,-3.31l11.3,-11.06l-8.65,-8.47l3.39,-3.32l8.65,8.47l17.27,-16.9l-13.12,0l0,-4.69l21.26,0l0,20.81l-4.79,0l0,-12.78" fill="#000000" id="svg_8" stroke-width="1px"/>
  <path d="m537.08,324.39c-0.38,-0.56 -0.75,-1.16 -1.08,-1.78c-1.73,-3.17 -2.59,-6.66 -2.59,-10.47l0,-2.62c0,-3.71 -0.22,-6.52 -0.67,-8.41c-0.67,-2.92 -1.52,-4.38 -2.52,-4.38c-1.02,0 -2.43,1.87 -4.24,5.6c-1.43,2.94 -2.15,6.06 -2.15,9.37l0,7.85l-4.78,0l0,-10.03c0,-3.69 -0.28,-6.49 -0.84,-8.41c-0.85,-2.92 -2.54,-4.38 -5.07,-4.38l-2.3,0l0,-5.93l2.68,0c3.22,0 5.67,1.41 7.38,4.25c0.94,1.56 1.56,3.1 1.88,4.62c0.64,-1.85 1.49,-3.46 2.55,-4.81c2.16,-2.71 4.02,-4.06 5.59,-4.06c1.51,0 3.12,1.41 4.82,4.25c0.92,1.5 1.49,3.04 1.73,4.62c0.42,2.9 0.63,5.39 0.63,7.47l0,3.47c0,2.98 0.41,5.53 1.22,7.66c0.79,-1.69 1.69,-3.04 2.69,-4.04c0.95,-0.95 2.23,-1.75 3.83,-2.37c1.28,-0.5 2.75,-0.75 4.43,-0.75c1.43,0 2.75,0.25 3.95,0.75c1.24,0.5 2.36,1.24 3.36,2.22c0.97,0.96 1.73,2.06 2.26,3.31c0.51,1.23 0.77,2.53 0.77,3.91c0,1.35 -0.26,2.64 -0.77,3.87c-0.53,1.25 -1.29,2.36 -2.26,3.31c-0.92,0.9 -2.03,1.64 -3.36,2.22c-1.12,0.5 -2.55,0.75 -4.27,0.75c-1.75,0 -3.39,-0.25 -4.92,-0.75c-1.55,-0.5 -2.98,-1.27 -4.3,-2.31c-0.37,0.92 -0.75,1.78 -1.15,2.59c-0.94,1.84 -2.05,3.29 -3.35,4.35c-1.69,1.37 -3.25,2.33 -4.69,2.87c-1.75,0.67 -3.58,1 -5.5,1l-1.79,0l0,-4.68l1.79,0c1.43,0 2.64,-0.22 3.64,-0.66c1.24,-0.52 2.25,-1.15 3.03,-1.88c0.9,-0.79 1.65,-1.71 2.24,-2.78c0.68,-1.21 1.39,-2.81 2.14,-4.81m5.44,-1.22c1.59,1.71 3.14,2.77 4.63,3.19c0.95,0.27 1.9,0.41 2.84,0.41c1,0 1.81,-0.14 2.42,-0.41c0.68,-0.29 1.29,-0.69 1.82,-1.19c0.51,-0.5 0.93,-1.09 1.25,-1.78c0.28,-0.6 0.42,-1.3 0.42,-2.09c0,-0.75 -0.14,-1.46 -0.42,-2.13c-0.26,-0.62 -0.66,-1.22 -1.25,-1.78c-0.53,-0.5 -1.13,-0.9 -1.82,-1.19c-0.63,-0.27 -1.34,-0.4 -2.1,-0.4c-0.73,0 -1.48,0.13 -2.27,0.4c-0.87,0.32 -1.53,0.71 -1.98,1.19c-1.5,1.67 -2.69,3.59 -3.54,5.78" fill="#000000" id="svg_9" stroke-width="1px"/>
  <path d="m647.02,383.31l-3.71,-6.25l-11.05,6.25l-2.39,-4.03l15.22,-8.59l3.68,6.25l11.08,-6.25l3.67,6.25l11.09,-6.25l6.06,10.28l-4.15,2.34l-3.7,-6.25l-11.06,6.25l-3.7,-6.25l-11.05,6.25m0,20l-3.71,-6.25l-11.05,6.25l-2.39,-4.03l15.22,-8.59l3.68,6.25l11.08,-6.25l3.67,6.25l11.09,-6.25l6.06,10.28l-4.15,2.34l-3.7,-6.25l-11.06,6.25l-3.7,-6.25l-11.05,6.25" fill="#000000" id="svg_10" stroke-width="1px"/>
 </g>
</svg>